<?xml version="1.0" encoding="UTF-8"?>
<svg id="Capa_2" data-name="Capa 2" xmlns="http://www.w3.org/2000/svg" viewBox="0 0 720.56 720.27">
  <defs>
    <style>
      .cls-1 {
        fill: #ff7519;
      }
    </style>
  </defs>
  <g id="Capa_1-2" data-name="Capa 1">
    <g>
      <path class="cls-1" d="M58.3,720.2c-35.99-1.44-55.53-26.13-57.52-60.73.04-127.11-1.81-254.46.04-381.5.21-14.33-.5-28.7.49-43.01C9.94,109.97,117.08,6.9,242.03,1.68c79.6-3.33,162.18-.72,241.99-.46,44.18.15,90.12-1.75,134.05-.05,37.72,1.46,69.43,15.34,71.24,57.76,1.73,40.38-24.3,61.93-62.75,64.29-110.19,1.44-220.39-1.06-330.5.5-26.22.37-47.12-.97-72.87,6.13-132.45,36.49-135.56,214.1-3.28,253.49,14.41,4.29,30.06,6.77,45.11,7.39,57.53,2.37,117.12-2.75,174.54-.04,34.95,1.65,63.76,17.15,66.25,55.25,2.75,42.06-21.12,63.98-61.75,66.29-32.1,1.82-66.69.82-99.04.96-30.56.13-61.41.69-91.97-1.49-44.49-3.18-87.19-16.22-130.76-24.49l.02,166.27c-1.66,36.26-17.39,65.05-57.02,66.73-2.26.1-4.74.09-7,0Z"/>
      <path class="cls-1" d="M720.3,441.2c.35,8.17.34,17.83,0,26-5.52,131.7-112.53,232.02-242.23,240.02-52.79,3.26-111.35,1.75-164.54,1.01-39.88-.56-91.1,2.09-99.08-48.92-7.14-45.64,20.1-71.68,64.08-74.12,63.83-3.54,130.41,3.28,194.54-.96,93.2-6.17,150.68-97.62,113.96-184.5-20.48-48.45-64.46-76.39-116.46-79.04-60.25-3.07-121.2,1.67-181.54-.46-34.92-1.23-68.54-12.36-73.66-51.84-5.92-45.67,20.4-68.08,63.66-70.2,0,0,106.04-1.75,106.27-1.99.58-.61,104.51-1.62,151.11,11.15,107,29.32,179.16,123.16,183.89,233.86Z"/>
    </g>
  </g>
</svg>